<?xml version="1.0" encoding="utf-8"?>
<!-- Generator: Adobe Illustrator 22.1.0, SVG Export Plug-In . SVG Version: 6.00 Build 0)  -->
<svg version="1.1" id="Capa_1" xmlns="http://www.w3.org/2000/svg" xmlns:xlink="http://www.w3.org/1999/xlink" x="0px" y="0px"
	 viewBox="0 0 288 560" style="enable-background:new 0 0 288 560;" xml:space="preserve">
<style type="text/css">
	.st0{display:none;fill:none;enable-background:new    ;}
	.st1{display:none;fill:none;stroke:#000000;stroke-width:0.25;stroke-miterlimit:10;}
	.st2{display:none;}
	.st3{display:inline;fill:none;stroke:#000000;stroke-width:0.25;stroke-miterlimit:10;}
	.st4{fill:none;stroke:#000000;stroke-width:0.25;stroke-miterlimit:10;}
</style>
<path class="st0" d="M0,0"/>
<g id="_x3C_christ_x3E_">
	<path class="st1" d="M290,189.5c0-0.4,0-0.8,0-1.2c0-0.7-0.5-0.2-0.7-0.4c0,11.5,0,22.9,0,34.4c0,34.2,0,68.3,0,102.5
		c-0.7,0.8-0.6,1.8-0.6,2.7c0,6,0,12,0,18c0,2.2-0.2,2.3-2.4,2.3c-3.9,0-7.8-0.1-11.7,0.1c-0.3,0-0.7,0-1,0c-5.7-0.1-11.3-0.1-17,0
		c-1,0-2,0-3,0c-0.8,0-1.5,0-2.3,0c-1-0.1-2,0-3,0c-3.7-0.1-7.4-0.1-11.1,0c-0.2,0-0.4,0-0.7,0c-0.8,0-1.5,0-2.3,0
		c-0.2,0-0.4,0-0.7,0c-6.6,0-13.2-0.1-19.8,0c-0.2,0-0.4,0-0.7,0c-0.8,0-1.7,0-2.5,0c-0.3,0-0.6,0-0.9,0c-1.2,0-2.3,0-3.5,0
		c-0.3,0-0.6,0-1,0c-3-0.1-6-0.1-9,0c-0.2,0-0.5,0-0.7,0c-5.6-0.1-11.3-0.1-16.9,0c-0.3,0-0.7,0-1,0c-4.2-0.1-8.4-0.1-12.6,0
		c-0.3,0-0.7,0-1,0c-1.3,0-2.6,0-3.8,0c-0.3,0-0.6,0-1,0c-1.1,0-2.2,0-3.2,0c-0.2,0-0.4,0-0.7,0c-1.1-0.1-2.2,0-3.2,0
		c-21.6,0-43.2,0-64.8,0c-0.8,0-1.6-0.1-2.3,0.1c-0.4,0-0.7,0-1.1,0c-7.5-0.1-14.9-0.1-22.4,0c-0.2,0-0.5,0-0.7,0
		c-4.5-0.1-8.9-0.1-13.4,0c-0.3,0-0.7,0-1,0c-6.2-0.1-12.5-0.1-18.7,0c-0.2,0-0.5,0-0.7,0c-3.8-0.1-7.7-0.1-11.5,0c-0.3,0-0.7,0-1,0
		c-1.5,0-3,0-4.5,0c-0.3,0-0.6,0-1,0c-1.5,0-3-0.1-4.4,0.1c-0.3,0-0.6,0.2-0.9,0.4c-1,0-1.9,0-2.9,0c0,1.5,1.2,0.7,1.6,0.7
		c95.3,0.1,190.5,0,285.8,0.1c1.4,0,1.7-0.3,1.7-1.6C290,294.8,290,242.2,290,189.5z"/>
	<path class="st1" d="M108.7,208.9L108.7,208.9L108.7,208.9z"/>
	<path class="st1" d="M256.5,348.4c-0.9,0-1.8,0-2.7,0c-1-1.3-0.7-2.8-0.9-4.2c-1-8.4-2.3-16.7-4.4-24.9c-1.2-4.7-3.2-9.2-5.9-13.3
		c-1.4-2.2-3.1-4.1-5.2-5.6c-0.6-0.5-1.3-0.9-1.6-1.7c0-0.3,0.1-0.6,0.5-0.5c1.1,0.6,2.2,1.2,3.3,1.8c0.3,0.5,0.7,1,1.3,1.2
		c6.2,3.9,10.2,9.3,11.7,16.5c1.7,8.2,2.8,16.5,3.8,24.8c0.2,1.4,0.3,2.7,0.5,4.1C256.9,347.2,257,347.9,256.5,348.4z"/>
	<path class="st1" d="M108.9,208.5c0.1-0.2,3.3-3.6,5.1-5.4c0.5-0.6,1.1-1.1,1.7-1.6c4.6-4.5,10.1-6.6,16.5-6.7
		c2.9,0,5.7-0.1,8.6-0.4c8.4-1.1,15.4,1.7,20.5,8.2c3.9,5,5.9,11.1,7.6,17.2c1.3,5.6,4.3,10.1,9,13.5c3.1,2.3,4.5,5.4,4.6,9.2
		c0.1,2.6-0.2,5.1-0.6,7.6c-0.5,2.8-0.8,5.6,0,8.5c0.6,2,1.1,4,1.2,6.1c0.3,2,0.5,4-0.2,6c-0.5,1.4-0.5,2.7,0.3,3.9
		c1.7,2.5,2.2,5.2,1.9,8.1c-0.1,0.5,0,1.1,0,1.6c-0.1,1.8,0.5,3.3,1.7,4.7c1.8,2.1,3.3,4.3,2.7,7.5c-0.7,3.5,1.5,5.7,4.3,7.3
		c0.6,0.4,1.7,1.1,2.1-0.5c-0.7-1.4-1.9-2.7-1.8-4.3c0-1.6-0.4-3-0.9-4.4c-0.8-2.1-1.3-4.3-1.6-6.5c-0.2-1.8-0.2-3.7-0.8-5.4
		c-0.8-2.3-1.6-4.7-2-7.2c-0.6-5.8,2.2-10.4,5.7-14.6c1.6-1.9,3.4-1.9,5.3-0.4c0.6,0.7,0.9,1.5,0.9,2.4c0.3,1.4,0.3,2.8,0.4,4.2
		c0.1,2.8-0.5,5.5-0.4,8.3c0.2,3.4,1.1,6.5,3.9,8.8c1,0.8,2.2,1.6,3.3,2.1c2.5,1.1,4.9,3,7.9,1.8c0.4-0.2,0.9,0,1.4,0.1
		c3.4,1,5.8,3,6.9,6.3c0.4,1.1,0.9,1.7,2.2,1.4c3.6-0.6,6.8,0.4,9.6,2.5c1.2,0.7,2.3,1.4,3.5,2c4.6,2,9.2,4.2,13.4,7.1
		c1,0.7,2.1,1.2,3.2,1.5c3.4,1.1,6.5,2.6,9.1,5c1,0.9,2,1.6,3.3,2c1,0.3,2,0.8,3,1.2c5.7,2.4,11.4,4.9,16.9,7.9
		c0.6,0.2,1.1,0.1,1.3-0.5c0.1-0.4,0.1-0.7,0.1-1.1c0-44.6,0-89.1,0-133.7c0-0.6,0.1-1.3-0.4-1.9c-95.6,0-191.1,0-286.7,0
		c-1.4,0-1.7,0.3-1.7,1.6c0,53,0,105.9,0,158.9c1,0.5,2,0.5,3,0.1c0.4-0.6,0.4-1.2,0.4-1.9c0.1-3.9,0-7.8,0.3-11.7
		c0.3-4.8,0.7-9.5,1.3-14.3c0.5-4.2,1-8.5,2.8-12.4c0.5-1.2,0.6-2.6,0.6-4c0.1-3.5,1-6.9,3.1-9.7c2.5-3.2,4.7-6.5,6-10.4
		c0.7-1.9,0.5-2.3-1-3.1c-3-1.7-3.6-3.1-2.8-6.5c1.4-3.6,1-6.8-1.2-10c-1.3-1.9-1.2-4-0.1-6.1c0.8-1.5,1.6-3.1,2.6-4.5
		c1.1-1.7,1.6-3.5,0.7-5.5c-0.5-1.1-0.7-2.4-1-3.6c-0.6-2.9-0.1-4.1,2.4-5.7c1.1-0.7,2.4-1.1,3.6-1.6c2.2-1.1,2.3-1.4,1-3.5
		c-2-3.2-4-6.3-5.6-9.7c-1.1-2.3-1.1-4.5,0.7-6.6c1.4-1.7,3.2-2.8,5.1-3.8c1.6-0.8,3.1-0.7,4.7-0.1c3.4,1.3,6.4,3.3,9,5.8
		c3.7,3.4,6.9,7.2,10.2,11c0.9,1,1.8,2,2.9,2.9c2.2,1.7,4.2,1.2,5.2-1.4c0.8-1.9,1.6-3.7,2.6-5.5c0.5-0.9,1.1-1.7,2.1-1.8
		c4.6-0.5,9.9,0.4,11.4,6.4c0.6,4.2,0.9,8.4,0.9,12.6c0,1.7-0.2,3.4,0.1,5c0.8,3.8-0.3,7.1-2.2,10.4c-2,3.4-4.3,6.7-6.8,9.9
		c-2.5,3.3-3.6,6.5-0.8,10.2c0.4,0.6,0.6,1.3,1,1.9c2.7,4.8,3.2,10,3.6,15.3c0,5.3,0.1,10.6-0.3,15.8c-0.2,1.9,0.3,2.3,2.3,2
		c1.6-0.2,3.2-0.4,4.8-0.6c1.3-0.2,2.1-0.8,2.5-2c0.9-2.6,2.9-4.7,3.3-7.5c0.1-0.5,0.5-0.8,0.8-1.2c1.5-1.9,3.1-3.6,4.5-5.5
		c1.1-1.5,2-3.1,2.2-5c0.4-5,2.9-9.2,5.8-13.2c0.7-0.7,1.3-1.4,1.8-2.3c0.5-0.8,1.3-1.4,1.9-2.1c1.9-2.1,3.4-4.3,3.9-7.1
		c0.7-4.4,0-8.7-0.1-13.1c-0.3-3.4-0.3-6.8-0.1-10.2c0-0.4,0-0.7,0.1-1.1c0.1-0.6,0.2-1.2,0.3-1.8l0,0c-0.2,0.9-0.4,1.8-0.6,2.6
		c-0.3-0.4-0.2-0.8-0.1-1.2c-0.1-1.1,0.2-2.2,0.6-3.1c2-4.7,2.4-9.8,3.4-14.7c1-4.5,2-8.9,3.5-13.2c0.4-1,0.6-2,1.5-2.8"/>
	<path class="st1" d="M240.3,301.3c-0.7-0.3-0.7-0.8-0.7-1.4c4.5,2,8.9,3.9,12.9,6.8c1.1,0.8,2.4,1.3,3.7,1.8c0.1,0.1,0.1,0.3,0,0.4
		c-0.1,0.3-1.2-0.1-0.5,0.8c0.4,0.4,0.8,0.9,1,1.5c0,0.2,0.1,0.3,0.1,0.5c-0.1,0.3-0.2,0.7-0.4,0.9c-0.2,0.2-0.4,0.3-0.7,0.2
		c-2.1-4.7-6.1-7.2-10.6-9.1C243.4,303,242.1,301.6,240.3,301.3z"/>
	<path class="st1" d="M268.4,315.9c0-0.1-0.1-0.1-0.1-0.2c0.1-0.1,0.1-0.1,0.2-0.2c5.7,1.9,11.1,4.7,16.5,7.2c1.1,0.5,2.5,0.7,3.3,2
		"/>
	<path class="st1" d="M256.1,308.9c0-0.1,0-0.3,0-0.4c3.6,1.1,6.8,2.6,9.4,5.3c0.8,0.9,1.9,1.2,2.9,1.7l-0.1,0.1
		c-0.6,0-0.8,0.8-1.5,0.8c-0.2-0.1-0.5-0.2-0.6-0.4c-2.6-2.9-5.7-5.2-9.5-6.4C256.5,309.5,256.1,309.3,256.1,308.9z"/>
	<path class="st1" d="M67.6,314.2c3.7-0.7,7.5-0.8,10.9-2.6c0.3,0,0.6,0,0.9,0c2.2,0.9,4.4,1.7,6.7,2.2c1.3,0.3,2.3,1.3,3.2,2.3
		c1.6,1.6,3.3,1,4.9,0.4c1.1-0.5,1.5-0.2,2,0.6c1.5,2.4,3.6,4.2,6,5.7c0.9,0.6,1.4,1.1,0.7,2.1c-0.3,0.5-0.3,1-0.1,1.5
		c0.4,1.2,0.9,1.4,1.8,0.5c1-1,2.1-1.7,3.5-1.7c1.6,0,1.7-1.6,2.7-2c1.2,0.2,2.1,0.9,3.1,1.5c10.5,6,21.8,8.7,33.8,8.2
		c0.7,0,1.3-0.1,2-0.2c2.5-0.3,2.9-0.1,4,2.2c0.9,2.4,2,4.8,2.7,7.2c-0.8-2.6-1.9-5.1-2.9-7.7c-0.6-1.8-0.5-2.4,1.2-3
		c1.6-0.5,3.1-1.8,4.9-1.6c-0.4,1.4,0.5,2.8,0,4.3s-0.7,3-1,4.5c-0.6,2.6-1.2,5.2-1.9,7.8c-0.2,0.7-0.3,1.4-0.8,1.9
		c-23.7,0-47.4,0-71,0c-1.3-1.9-1.5-4.2-2.2-6.3c-2-6.1-3.6-12.3-7.5-17.6c-2.2-3-4.7-5.7-7-8.5C67.8,315.4,67.2,314.9,67.6,314.2z"
		/>
	<path class="st1" d="M256.1,308.9c4.3,1.5,8.1,3.6,10.9,7.4c1.5,1.3,1.9,3.1,2.6,4.8c3.3,8.3,4.7,17,4.6,26c0,0.5,0,1-0.3,1.4
		c-5.8,0-11.6,0-17.4,0c-1.3-11-2.4-22.1-5-32.9c-1.6-6.4-5.8-10.7-11.2-14.2c0.4-0.6,0.9-0.1,1.2,0c2.7,1.4,5.4,2.7,8.1,4.1
		c3,1.6,5.1,4,6.3,7.2c1.1,1.5,1.3,3.3,1.3,5.1c0.1,2.7-0.1,5.5,0.1,7.6c-0.2-1-0.2-2.6-0.1-4.2c0.1-3.1-0.2-6-1-9
		c0.1-0.1-0.1-0.4,0.2-0.4c3.3,2.7,5.2,6.2,5.4,10.5c0.2,3.2-0.1,6.4-0.6,9.5c-0.5,3.3-1,6.7-1.8,10c0,0.2,0.4-0.1,0.2,0
		c0.4-3,1.1-5.9,1.5-8.9c0.6-4.2,1.1-8.4,0.4-12.7c-0.4-2.5-1.5-4.5-3-6.3c-0.7-0.9-1.4-1.8-2.1-2.6c-0.7-0.9-1.3-1.7-2-2.6
		C255.1,308.4,255.6,309,256.1,308.9z"/>
	<path class="st1" d="M66.9,296c0.2,7.1-0.3,14.2-1.1,21.3c0.4,2.7-0.4,5.3-0.7,7.9c-1,7-2.1,13.9-3.1,20.8
		c-0.1,0.8-0.2,1.6-0.8,2.3c-4.6,0-9.2,0-13.9,0c-0.4-0.8,0.2-1.5,0.5-2.1c2-4,3.7-8.2,5.6-12.3c2.7-6,3-12.1,1.4-18.4
		c-0.4-1.4-0.5-2.9-1-4.3c-0.3-0.8-0.2-1.5,0.1-2.3c1.5-4.7,3.2-9.4,4-14.3c0.6-4,1-8.1,1.2-12.1c0.1-1.9,0.5-3.7,0.5-5.6
		c0-0.5,0-1.1,0.8-1.1c3.7,5.5,5.7,11.6,6.2,18.1C66.7,294.6,66.8,295.3,66.9,296z"/>
	<path class="st1" d="M46.8,348.4c-6.4,0-12.7,0-19.1,0c-0.2-0.2-0.3-0.5-0.3-0.8c0.7-6.4-0.3-12.6-1.8-18.8
		c-0.8-3.3-1.4-6.7-1.3-10.2c0-0.4-0.3-1,0.4-1.2c0.5-0.1,0.8,0.4,1.1,0.8c1,1.5,1.9,3,2.9,4.5c1.1,1.7,2.5,3.1,4.3,4.2
		c6.3,3.2,14-0.7,16.7-6.8c1-2.2,2-4.5,2.9-6.7c0.1-0.3,0.3-0.7,0.5-1c0.2-0.4,0.5-0.7,1-0.6c0.4,0.1,0.4,0.5,0.5,0.8
		c2,7.4,2.5,14.8-0.9,22C51.2,339.1,49.5,344,46.8,348.4z"/>
	<path class="st1" d="M196,348.3c-5.8,0-11.6,0-17.4,0c-0.9-2-0.8-4.2-0.8-6.2c-0.3-7.3,0.2-14.5,1.1-21.8c0.8-1.9,1.7-0.3,2.6-0.1
		c1,0.7,2,0.6,3-0.1s2-1.5,3.1-2.1c0.9-0.5,1.9-0.8,2.9-0.5c2.5,0.7,4.6,2.5,7.3,2.7c0.9,0.1,1,1,1.1,1.8c0.1,4.7-0.1,9.4-0.9,14.1
		c-0.5,3.3-1.1,6.6-1.3,10C196.8,347,196.6,347.7,196,348.3z"/>
	<path class="st1" d="M15.8,292c0.9-2.6,1.9-5.2,2.8-7.8c1-2,1-2,4.3-1.4c0.4,0.7,0,1.4-0.2,2c-1,3.5-2.5,6.9-2.8,10.6
		c-0.5,6.6,0.9,12.8,3.9,18.7c0.7,1.4,0.6,3,0.6,4.5c0.1,5.7,1.8,11.2,2.8,16.8c0.8,4.3,0.8,8.6,0.2,12.9c-4,0-8-0.1-12-0.1
		c-0.6-1-0.3-2.1-0.4-3.2c0-1.3-0.1-2.6,0.1-3.9c0.5-1.7,0.1-3.5,0.2-5.2c0-5.4,0-10.7,0-16.1c0-1.4,0-2.8,0-4.2
		c0.1-1.5-0.2-3,0.5-4.3c0.4-0.7-0.5-1-0.6-1.5c-1-5.5-0.7-10.9-0.1-16.4C15.1,293,15.4,292.5,15.8,292z"/>
	<path class="st1" d="M66.2,317.7c0.2-1.1,0.4-2.2,0.6-3.3h0.1c0.1,0,0.1,0.1,0.2,0.1c5.9,6.3,11.4,12.8,13.8,21.3
		c1,3.5,2.2,6.9,3.2,10.4c0.2,0.7,0.7,1.4,0.2,2.2c-7.6,0-15.2,0-22.8,0c0.5-4.1,1.2-8.2,1.8-12.2c0.8-5.6,1.7-11.1,2.4-16.7
		C65.8,318.8,65.8,318.2,66.2,317.7z"/>
	<path class="st1" d="M225.9,296.3c2.3-1,4.6-0.7,6.8,0.3c1.1,0.5,2.2,1.2,3.3,1.8c7.5,5.6,11.2,13.5,13.3,22.2
		c2.3,9.1,3.6,18.4,4.4,27.8c-0.8,0-1.5,0-2.3,0c-0.5-0.5-0.5-1.2-0.6-1.8c-1.6-8.9-2.7-17.9-5.3-26.7c-1.1-3.7-2.4-7.3-3.6-11
		c-0.1-0.1-0.1-0.3-0.1-0.5c-0.1,0.1,0,0.3,0.1,0.4c0.1,0.2,0.2,0.5,0.3,0.8c2.1,6.3,3.3,12.9,4.4,19.4c1,5.8,1.9,11.6,2.4,17.4
		c0.1,0.7,0.2,1.3-0.3,1.9c-3.9,0-7.7,0-11.6,0c-0.2-2,0.6-3.9,0.7-5.8c1.2-6.6,2.4-13.3,3.5-20c-1.1,6.4-2.2,12.9-3.4,19.3
		c-0.5,2.2-0.6,4.4-1.2,6.5c-0.7,0-1.5,0-2.2,0c-0.5-1.3,0.2-2.6,0.5-3.8c1.8-7.7,3.2-15.5,4.8-23.2c0.2-0.8,0-1.5,0.2-2.3
		c0.9-4.7-0.1-9-2.5-13.1c-2.1-3.6-4.9-6.3-8.9-7.9C227.5,297.7,226.4,297.4,225.9,296.3z"/>
	<path class="st1" d="M178,348.3c-4.4,0-8.7,0-13.1,0c-1-1.9,0-3.7,0.1-5.6c0.3-3.4,0.6-6.7,0.9-10.1c0.4-3.7,0.3-7.3,0.4-11
		c0-1.5,0.6-2.6,2.4-2.8c2-0.3,4-0.9,5.9-1.5c1.3-0.3,2.5-0.2,3.6,0.5c0.7,0.4,1.3,0.9,1,1.8c-0.9,7.7-1.2,15.5-1,23.2
		C178.2,344.7,178.7,346.5,178,348.3z"/>
	<path class="st1" d="M234.2,348.4c-6.9,0-13.7,0-20.6,0c-0.5-2.6,0.3-5.2,0.4-7.8c0-0.5,0.2-0.9,0.2-1.4c0.1-3.1,0.4-3.2,3.4-4.1
		c3.6-1,7.3-1.9,10.3-4.4c0.6-0.5,1.3-0.6,2-0.6c3,0.2,5.1-1.4,7.1-3.2c0.4-0.4,0.7-1.2,1.4-0.9c0.8,0.4,0.3,1.1,0.2,1.7
		C237.3,334.6,235.9,341.5,234.2,348.4z"/>
	<path class="st1" d="M4.5,348.4C4.2,339.1,5,329.8,6,320.6c0.7-3.6,0.8-7.3,2.5-11.2c0.5,5.9,0.4,11.4,0.6,16.8
		c0.6,1.3,0.2,2.7,0.3,4c0.1,2.2-0.2,4.3,0.2,6.5c-0.1,3.3,0.3,6.5,0.2,9.7c0,0.6,0.1,1.3-0.3,1.9C7.7,348.4,6.1,348.4,4.5,348.4z"
		/>
	<path class="st1" d="M198.2,334.1c0.6-4.4,0.5-8.9,0.4-13.3c0-0.9-0.1-1.9,0.6-2.8c0.7,0.4,0.8,1,0.8,1.5c-0.1,1.9,0.5,3.7,1.1,5.6
		c1.5,5.1,2.5,10.3,3.6,15.4c0.5,2.2,1.1,4.4,1.2,6.6c0,0.4,0.1,0.8-0.2,1.2c-3.2,0-6.3,0-9.5,0"/>
	<path class="st1" d="M248.6,348.4c-1.4-13.2-3.5-26.3-6.9-39.2c-0.1-0.4-0.3-0.8,0.4-0.7c4,9.6,6.3,19.5,7.9,29.7
		c0.5,3.4,1.3,6.8,1.5,10.2C250.5,348.4,249.6,348.4,248.6,348.4z"/>
	<path class="st1" d="M159.6,348.4c-1.1,0-2.2,0-3.3,0c0.2-2.6,1.1-5.1,1.7-7.7c0.7-3.4,1.8-6.8,1.9-10.4c0-0.3,0-0.6-0.1-0.9
		c0.1-1.9,0.3-3.7,0.4-5.6c0.3-0.9,0.2-1.8,0.2-2.6c0-0.7,0.1-1.4,0.4-2.1c0.3-0.8,0.9-1.1,1.7-0.9c0.9,0.2,1.3,0.7,1.2,1.7
		c-0.9,8.9-1.8,17.8-3.5,26.5C160.2,347.1,160.1,347.8,159.6,348.4z"/>
	<path class="st1" d="M206.4,348.3c-1.5-7.2-3-14.4-4.5-21.7c0.8,0.3,1.7,0.4,1.5,1.3c-0.6,3.3,1.5,5.4,3.4,7.7
		c0.6,0.3,0.7,0.8,0.9,1.4c0.7,2.3,1.3,4.7,1.8,7c0,1.5,1.3,2.8,0.6,4.3C208.8,348.4,207.6,348.4,206.4,348.3z"/>
	<path class="st1" d="M207.2,337c-0.2-0.4-0.3-0.9-0.5-1.3c0.1-0.1,0.2-0.3,0.3-0.4c5.3,0.8,10.3-0.4,15.2-2.2
		c3.4-1.2,6.1-3.1,7.8-6.4c0.2-0.1,0.3-0.1,0.5-0.1c0.7,1-0.3,1.8-0.4,2.6c3.3,0.4,6.9-2.3,8.1-6c0.5-1.6,0.8-3.2,1.1-4.8
		c0.1-0.5-0.1-1.3,0.8-1.4c0.5,0.6,0.3,1.3,0.2,1.9c-0.4,5.8-2,11.4-3.1,17.1c-0.8,4.1-1.9,8.2-2.8,12.3h-0.1h-0.1
		c0.2-3.4,1.3-6.6,1.9-9.9c0.8-4.1,1.7-8.1,2.5-12.4c-0.9,0.8-1.5,1.5-2.2,2.1c-1.9,1.6-4,2.8-6.7,2.6c-0.5,0-1.1-0.1-1.5,0.3
		c-3.3,3-7.5,3.9-11.6,4.9c-1.4,0.4-1.8,1-1.9,2.3c-0.3,3.4-0.5,6.9-1.1,10.2c-0.1,0-0.2,0-0.4,0c-0.7-0.8-0.5-1.7-0.4-2.5
		c0.3-2.5,0.5-4.9,0.7-7.4c0.1-1-0.2-1.4-1.2-1.3c-1.3,0.1-2.6,0.1-3.9-0.1C208,336.9,207.6,337.1,207.2,337z"/>
	<path class="st1" d="M208,336.3c1.6,0.6,3.2,0.4,4.8,0.2c1.6-0.2,1.6,0.4,1.4,1.6c-0.4,3.4-0.6,6.8-0.9,10.2c-0.9,0-1.7,0-2.6,0
		c-1-1.5-1-3.4-1.6-5.1c-0.4-1.7-0.9-3.4-1.3-5.2C207.7,337.5,207.4,336.9,208,336.3z"/>
	<path class="st1" d="M84.3,348.4c-1.5-5.9-3.3-11.7-5.6-17.4c-1.7-4.4-4.7-8.1-7.8-11.7c-1.3-1.6-2.9-3-3.9-4.8
		c0.2-0.1,0.4-0.2,0.6-0.3c0,0.6,0.4,1,0.8,1.3c9.5,9,13.6,20.7,16.5,32.9C84.7,348.4,84.5,348.4,84.3,348.4z"/>
	<path class="st1" d="M209.4,343.3c0.7,1.6,0.8,3.4,1.3,5c-0.2,0-0.4,0-0.6,0c-0.3-1.4-0.7-2.8-1-4.3
		C209.2,343.9,209,343.5,209.4,343.3z"/>
	<path class="st1" d="M133.8,289.8L133.8,289.8L133.8,289.8z"/>
	<path class="st1" d="M160.2,329.5c-0.3,0-0.6,0.1-0.7,0.4c-1.5,0.6-2.9,1.4-4.4,1.8c-1.6,0.5-2,1.3-1.3,2.7
		c0.2,0.4,0.3,0.8-0.4,0.8c-0.5-1.5-1.3-2.3-3.3-2.1c-13.7,1.4-26.4-1.9-38.2-8.9c-0.5-0.3-0.9-0.5-1.4-0.8c-0.4,0.1-0.5,0-0.4-0.4
		c-0.1-1.6-0.2-3.3-0.4-4.9c-0.1-0.7-0.4-1.4,0.2-1.9c0.8-0.2,1.2,0.4,1.7,0.8c8,7.1,17.7,10.1,28.2,11c6.3,0.6,12.2-1.1,18.1-2.8
		c1-0.3,1.4-1.2,2.3-1.7c0.1,0.1,0.2,0.3,0.4,0.4C160.8,325.8,160.4,327.6,160.2,329.5z"/>
	<path class="st1" d="M25.7,236.1c-0.7-0.1-1.2-0.1-1.7-0.8c-2.1-3.4-4.5-6.8-6.3-10.4c-1.8-3.7-1.6-5.6,0.7-8
		c3.5-3.6,6.5-4.5,10.1-2.9c3.5,1.5,6.2,4,8.9,6.5c3.3,3.2,6.3,6.7,9.4,10.1c1.6,1.8,3.1,3.9,6,3.9c0.9,0,0.6,0.8,0.6,1.2
		c0,2.3,0,4.6,0.2,6.9c0.4,4,4.7,6.9,8.6,5.8c3.6-1,8.4-6.6,8.8-10.3c0.4-1.2-0.1-2.4,0.3-3.6c0-0.1,0-0.2,0-0.4
		c0.1,0.3,0.3,0.7,0.3,1c0.1,5.2,0.2,10.5,0.4,15.7c0.1,2.9-0.7,5.6-2.3,7.9c-2.3,3.5-4.8,7-7.2,10.5c-1.1,1.6-2.2,3.1-2.4,5.1
		c-0.6,6.4-0.8,12.8-1.8,19.2c-0.8,5.2-2.1,10.3-4.3,15.1c-1.6,3.7-3,7.5-4.7,11.2c-1.8,3.9-4.8,6.3-8.8,7.6c-2.6,0.8-5,0.3-7.4-0.6
		c-2.7-1.5-4.4-4-6-6.5c-3.8-6.1-6.5-12.6-7.1-19.9c-0.2-3.5-0.5-7.1,0.8-10.5c0.9-2.4,1.2-5.1,2.6-7.3c4.6,0.3,9.2,0.4,13.8-0.4
		c3.2-0.6,6.3-1.4,9.3-2.7c2.9-1.2,3.6-2.6,2.9-5.6c0-0.2-0.1-0.4-0.1-0.5c-0.7-2.1-1.1-3.8,0.7-5.9c2.2-2.6,1.8-5.8,0.2-8.7
		c-0.6-1.1-0.7-1.9,0.8-2.3c1.1-0.3,1.6-1.2,1.8-2.3c0.3-1.9,0.4-3.8-0.2-5.6c-0.6-4.2-2.7-7.2-7-8.5L25.7,236.1z"/>
	<path class="st1" d="M52.2,249.2c0,1.4,0,2.7-0.1,4.1c-0.1,2.1-0.8,2.8-2.9,3.1c-1.2,0.2-2.5,0.2-3.8,0.2c-1.5-0.2-3.1-0.2-4.6,0.1
		c-1.9,0.3-3.7-0.4-5.5-0.8c-4.7-1.1-9.4-2.4-14.1-3.7c-0.6-0.2-1.2-0.3-1.5-0.9c-1.5-0.2-2.2-1.1-2.6-2.5c-0.5-1.9-1.2-3.8-1.4-5.9
		c-0.1-1.6,0.4-2.8,1.8-3.6c3.1-1.8,6.2-3.2,10.1-2.4c4.9,1,9.9,1.9,14.8,3C47.7,241.1,51.3,243.8,52.2,249.2z"/>
	<path class="st1" d="M41.4,257.1c2.1,0.1,4.2,0.3,6.2,0.4c0.5,0,1-0.1,1.4,0.5c1.7,3.1,2.4,6.3,0.5,9.6c-0.6,0.9-1.2,1.7-2.3,2
		c-0.3,0.3-0.7,0.4-1.1,0.4c-3.5-0.1-7.1,0.3-10.6-0.2c-1-0.2-2,0-3-0.1c-0.7,0-1.3,0.1-1.9-0.4c-3.5-0.3-7.1-0.7-10.6-0.7
		c-4.4,0.1-9.1-5.9-6.3-10.6c1-1.7,2.1-3.5,3.3-5.1c0.5-0.7,1.1-1,2-1c2.8,0.1,5.4,1.1,8.1,1.9C31.8,255,36.5,256.2,41.4,257.1z"/>
	<path class="st1" d="M29.9,269.8c2.1-0.3,4.1-0.3,6.2,0c3,0.3,6.1,0.2,9.1,0.2c0.8,0,1.6-0.1,2.3,0.4c0.1,0.1,0.2,0.2,0.2,0.3
		c2.5,6.4,1.7,7.7-5,9.8c-7,2.1-14,2.3-21.2,1.2c-5.2-0.8-6.5-2.2-6.8-7.4c0.5-1.6,1-3.2,1.6-4.7c0.1-0.4,0.1-1,0.9-0.7
		c2.4,0.7,4.9,0.3,7.3,0.8c0.4,0.4,0.7,0.9,1.3,0.6"/>
	<path class="st1" d="M41.4,257.1c-2.7,0-5.2-0.6-7.8-1.2c-4.9-1.3-9.8-2.7-14.7-4c0.3-0.1,0.5-0.3,0.8-0.4
		c5.6,1.4,11.2,2.8,16.8,4.3c2.9,0.8,6,0.4,8.9,0.9C44.1,257,42.7,256.3,41.4,257.1z"/>
	<path class="st1" d="M47.5,270.3c-6-0.1-11.9-0.3-17.9-0.4c-0.1,0-0.2-0.1-0.2-0.3c0.4-0.1,0.8-0.2,1.1-0.4
		c5.5,0.1,11.1,0.2,16.6,0.3C47.3,269.8,47.4,270.1,47.5,270.3z"/>
	<path class="st1" d="M24.4,269.6c1.7,0,3.3,0,5,0.1c0.1,0.1,0.1,0.2,0.2,0.3"/>
	<path class="st1" d="M71.3,234.6c0,1.2,0.2,2.4-0.3,3.6C71,237,70.6,235.8,71.3,234.6z"/>
	<path class="st1" d="M201.3,317.3c-4.8,0.4-7.8-4-5.8-8.6c0.5-1.2,1.5-2,2-3.1c0.9-0.4,1.9-0.7,2.8-1.1c0.7-0.9,1.8-1.1,2.8-1.4
		c6.2-2,12.4-3.9,18.9-5.2c0.6-0.1,1.2-0.3,1.8-0.1c0.9,0,1.1,0.8,1.7,1.2c2.7,2.3,3.1,7.3,1,9.9c-0.4,0.4-0.8,0.7-1.3,0.8
		c-6.2,1.8-11.9,4.7-18,6.6C205.2,316.9,203.3,317.5,201.3,317.3z"/>
	<path class="st1" d="M195.9,303.1c-0.5-0.9-1.2-1.7-1.5-2.6c-1-2.5-0.2-4.5,2.2-5.8c3.3-1.8,6.9-2.7,10.3-4
		c0.9-0.3,1.9-0.7,2.8-1.1c1.7-0.5,3.5-0.9,5.2-1.4c4.1-1.2,9.8,3.9,9.4,8.6c0,0.4-0.3,0.5-0.6,0.6c-2.1,0.9-4.4,1.1-6.6,1.7
		c-5.1,1.3-10.2,2.8-15.2,4.6c-0.8,0.3-1.6,0.3-2.4,0.4C198.2,304.3,196.9,304.2,195.9,303.1z"/>
	<path class="st1" d="M240,317c-0.1,2.3-0.6,4.6-1.4,6.8c-1.3,3.8-5,6.2-9.2,6.1c0.3-1.1,1.3-2,1.2-3.2c-0.2-1.9-0.4-3.7-1.6-5.3
		c-0.6-0.8-0.3-1.7,0.1-2.5c0.6-1.2,0.9-2.4,1-3.7c0.1-2.1-0.7-3.7-2.4-4.8c-1.1-0.7-1.5-1.3-0.8-2.6c1.4-2.5,0.9-5-0.5-7.4
		c-0.3-0.6-0.6-1.1-0.9-1.7c0.1-0.6-1.4-1.1,0-1.7c6.5,1.9,11,6,13.5,12.2C240.1,311.6,240.8,314.2,240,317z"/>
	<path class="st1" d="M240,317c0-3-0.2-5.8-1.5-8.6c-2.3-4.9-5.7-8.6-10.8-10.6c-0.8-0.3-1.5-0.7-2.2-1.1c0.1-0.1,0.3-0.3,0.4-0.4
		c7.2,2.5,11.9,7.3,14.1,14.5c0.8,2.7,0.9,5.4,0.3,8.1C240.1,318.3,240.5,317.6,240,317z"/>
	<path class="st1" d="M199.5,304.1c7.7-2.5,15.4-5,23.3-6.6c0.3-0.1,0.6,0,0.9-0.1c0,0.1,0,0.3,0,0.4c-4.4,1.3-8.9,2-13.3,3.5
		c-3.4,1.1-6.8,2.1-10.2,3.2C200.1,304.2,199.8,304.2,199.5,304.1z"/>
	<path class="st1" d="M189.5,296.1c-0.3,4.9,2.3,7.8,7.3,8.5c0.8,0.1,1.2,0.3,0.7,1.1c-2.6,1.3-3.9,4.9-2.7,8.1
		c0.6,1.6,1.2,3.4,3.1,4.1c0.7,0.3,0.6,1,0.5,1.5c-0.1,0.7-0.7,0.5-1.2,0.5c-2.2-0.1-4-1.1-5.6-2.5c0.5-0.5,2.2-0.6,0.5-1.7
		c-0.4-0.2-0.9-0.9-1,0.5c-0.1,1.3-1.8,1.4-2.7,1.3c-0.7-0.1-0.9,0.1-1.3,0.5c-1,0.9-1.7,2.1-3,2.7c-1,0.4-1.8,0.6-2.6-0.3
		c0.1-3.1-0.9-5.8-2.2-8.6c-0.8-1.8,0.1-3.7,0.2-5.6c0-0.4,0.2-0.8,0.2-1.2c0-0.3,0.1-0.8-0.3-0.9c-0.4-0.1-0.6,0.3-0.7,0.6
		c-0.4,1.4-0.8,2.7-1.2,4.1c-0.2,0.5-0.2,1.1-0.9,1.2s-0.9-0.5-1.1-1c-1.4-3.1-2.3-6.2-1-9.6c0.2-0.5,0.6-1.1-0.2-1.3
		c-0.6-0.2-0.7,0.6-0.9,1c-0.5,1.1-0.9,2.1-1.4,3.4c-1-2.4,0.6-4.4,0.5-6.6c0-0.5,0.6-0.3,0.8-0.1c0.6,0.4,1.1,0.9,1.6,1.4
		s0.9,1,1.8,0.6c1-0.4,1.5,0.5,1.9,1.2c1.2,1.9,2.3,3.9,3.5,5.8c1.2,1.8,2.7,3.1,4.9,3.9c-0.2-1.3-1.7-1.6-1.7-3
		c2.6,1.1,4.8,3,7.7,2.9c-3.6-2.1-7.2-4.2-8.7-8.5c2.5,1.7,4.2,4.7,7.6,5.1c-2.9-1.6-4.3-4.5-6.2-6.9c-0.9-1.1-2.3-1.7-3.5-2.5
		c-0.4-0.3-0.9-0.6-0.8-1.1c0.1-0.5,0.6-0.7,1.1-0.8c0.6-0.2,1.2-0.2,1.7-0.4c0.3-0.1,1,0,0.9-0.6c-0.1-0.5-0.6-0.5-1-0.5
		c-1.1,0-2.2,0-3.4,0c0.2-0.9,0.8-0.8,1.1-1c0.4-0.2,1.2-0.2,1.1-0.7c-0.1-0.7-0.9-0.5-1.4-0.5c-1.1-0.1-2.2,0.2-3.2-0.4
		c-0.1-0.9,1-0.5,1.2-1.2c-0.7-0.1-1.5-0.1-2.2-0.4c-0.5-0.2-1.4-0.2-1.3-1c0-0.6,0.7-0.8,1.2-0.9c1.2-0.3,2.3-0.6,3.5-0.7
		c3.3-0.2,3.9-1.9,2.8-4.3c-1.1-2.5-1-5.1-1.6-7.5"/>
	<path class="st1" d="M242.1,308.5c-0.4,0.1-0.3,0.5-0.4,0.7c-0.5-0.6-0.5-1.4-0.6-2.2C241.9,307.3,242,307.9,242.1,308.5z"/>
	<path class="st1" d="M201.7,317.7c4.8-0.8,9.2-2.5,13.7-4.4c2.9-1.2,5.8-2.3,8.8-3.2c3.2-0.9,6.1,1.1,5.9,4.4
		c-0.2,3.4-1.6,6.2-4.9,7.7c-3.8,1.7-7.8,2.8-11.8,3.7c-0.3,0.1-0.6,0-0.8,0.3c-0.4,0.1-0.9-0.3-1.4,0c-0.7,0.5-1.6-0.5-2.2,0.3
		c-1.6,0.5-3.2,0.6-4.8,0.3c-2.8-0.7-5.1-5.2-4.1-7.9C200.4,318.2,201.1,318,201.7,317.7z"/>
	<path class="st1" d="M212.9,326.6c5.2-1.1,10.4-2.2,14.9-5.3c0.7-0.5,0.9-0.1,1.3,0.3c1.2,1.5,1.5,3.2,1.2,5
		c-0.7,2.1-1.9,3.9-3.9,4.9c-5.2,2.8-10.8,4.5-16.8,4.4c-0.9,0-1.8-0.1-2.4-0.8c-1.1-1.5-2.4-2.8-3-4.6c-0.7-2.2-0.3-2.8,1.9-3
		C208.4,327.5,210.6,327.1,212.9,326.6z"/>
	<path class="st1" d="M208.9,326.7c0.1-0.6-0.1-1.4,0.9-0.7c0.4,0.3,0.9,0.3,1.3,0.4C210.5,326.7,209.7,326.7,208.9,326.7z"/>
	<path class="st1" d="M209.4,343.3c-0.1,0.2-0.2,0.5-0.4,0.7c-0.6-2.4-1.2-4.7-1.8-7.1c0.2-0.2,0.5-0.4,0.7-0.7
		C207.9,338.8,209.1,341,209.4,343.3z"/>
	<path class="st1" d="M110.2,316.3c-0.6-2.3,0.6-4.1,1.8-5.9c1.6-2.5,2.8-5.2,2.5-8.3c0.3-2.4,0.4-4.8,1-7.2c0.5-2,1.5-3.6,2.8-5.1
		c0.7-0.8,1.6-1,2.3,0.1c0.7,1,1.4,1.9,2.2,2.8c4.5,5.7,10.5,7.7,17.7,7c1.1-0.1,2.2-0.4,2.9-1.2c0.9-1,1.8-1.1,3-0.5
		c2.9,1.6,5.7,1.4,8.3-0.7c1.8-1.4,3.8-2.5,5.6-3.9c1.3-1,1.3-0.2,1.3,0.8c0.1,3.4-0.5,6.7-0.9,10c-0.1,0.4-0.1,0.8-0.5,1.1
		c-0.5,2.6-0.6,5.3-1.5,7.8c-0.7,1.9-0.8,3.6,1.1,4.9c0.7,0.5,0.9,1.2,0.6,1.9c-0.4,1.2-0.1,2.4-0.2,3.7c-0.1,1.2-0.8,1.7-1.9,2.1
		C140.6,331.5,124.5,328.5,110.2,316.3z"/>
	<path class="st1" d="M159.2,314.5c0.2,0.5,0.4,1,0.6,1.4c0.4,0.7,1.7,1.4,1.8,1.2c0.5-1,2.3,0.3,2.2-1.4c0-0.3,0.2-0.5,0.4-0.5
		c1.9,0.1,1.4-1.3,1.5-2.3c0.2-1.8,0.4-3.6,1.4-5.3c0.4-0.7,0.5-1.6,1.8-1.2c0.9,0.3,0.5-1,1-1.5c0.6,0.9,0.2,1.8-0.2,2.6
		c-0.7,1.4-1.5,2.7-2.2,4.1c-0.8,1.6-0.4,2.2,1.4,2.2c0.5,0,1,0,1.4,0c1.4-0.1,2.7-0.2,1.9,1.9c-0.3,0.7,0,1.6,1.1,1.6
		c-2.9,1.7-6,1.6-9.2,1c-1.1-0.2-2.2-0.5-3.3-0.7C159.4,317.3,158.8,316,159.2,314.5z"/>
	<path class="st1" d="M181.7,284.5c-0.5,0.6-1,0.5-1.5,0.4c-0.7-0.1-1.3-0.5-1.7-1.2c-0.1-0.1,0-0.4,0.1-0.4
		c0.7-0.3,1.2,0.1,1.8,0.4C180.8,283.9,181.3,284.2,181.7,284.5z"/>
	<path class="st1" d="M174.4,282.4c0.4,0.2,0.6,0.2,0.6,0.2c0.5,0.7,1,1.3,1,2.2c0,0.2-0.3,0.3-0.5,0.2
		C174.6,284.4,174.5,283.6,174.4,282.4z"/>
	<path class="st1" d="M165.7,295.6c-0.5,1.2-1.2,1.7-2.5,1.8C163.8,296.3,164.5,295.9,165.7,295.6z"/>
	<path class="st1" d="M181.1,275.8c-1.3-0.7-0.9-1.8-1.5-2.4C180.6,273.7,180.9,274.5,181.1,275.8z"/>
	<path class="st1" d="M183.2,281.7c-0.9-0.4-1.4-0.8-1.2-1.9C182.7,280.3,183.2,280.8,183.2,281.7z"/>
	<path class="st1" d="M166.5,295.3c-0.2-1,0.1-1.5,0.8-2C167.7,294.2,167.3,294.6,166.5,295.3z"/>
	<path class="st1" d="M118.5,323.8c7.4,3.3,15.2,5.5,23.4,5.6c5.6,0.1,11-0.9,16.2-2.7c0.5-0.2,1.3-0.9,1.7-0.1
		c0.4,0.9-0.3,1.5-1.2,1.8c-3.2,1.3-6.6,2.4-10,2.7c-11,0.8-21.3-1.4-30.9-7C117.8,323.5,118.1,323.6,118.5,323.8z"/>
	<path id="Clothes" class="st1" d="M118.5,323.8c-0.3,0.1-0.6,0-0.7,0.4c-0.9-0.5-1.8-1-2.7-1.5c0.1-0.2,0.2-0.3,0.2-0.5
		C116.4,322.7,117.5,323.2,118.5,323.8z"/>
	<g id="_x3C_BeardShades_x3E_" class="st2">
		<path class="st3" d="M126.2,285.2c-0.2-0.2-0.5-0.3-0.7-0.5C125.7,285,126,285.1,126.2,285.2z"/>
		<path class="st3" d="M124.6,286.7c1.1,0.3,1.9,0.6,2.4,1.2c0.2,0.2,0.5,0.6,0.3,0.9c-0.3,0.4-0.6,0.2-0.9,0
			C125.7,288.3,125,287.8,124.6,286.7z"/>
		<path class="st3" d="M123.6,278.8c0.6,0.2,1.1,0.4,1.1,1c0,0.5-0.5,0.7-1,0.7s-0.8-0.3-0.8-0.8
			C122.9,279.3,123.1,278.9,123.6,278.8z"/>
		<path class="st3" d="M122.7,270.4c-0.4-1.1-0.3-1.8,0.5-2.6C123.7,268.8,123.5,269.5,122.7,270.4z"/>
		<path class="st3" d="M123,275.7c0.4,0.7,0.8,1.4,1.2,2.1C123.2,277.4,122.6,276.8,123,275.7z"/>
		<path class="st3" d="M133.7,279.5c-2.4,2.5-2.4,3,0.6,5.8c-0.7,0.7-1.7-0.5-2.3,0.4c-0.1,0.1-0.7-0.6-0.5-0.9
			c1.1-1.4,0-1.4-0.9-1.6c-0.5-0.1-1.1,0-1.1-0.6c-0.1-0.7,0.3-1.7,0.9-1.8C131.4,280.5,132.3,279.8,133.7,279.5z"/>
		<path class="st3" d="M139.2,283.7c0.7-2,2.3-3.4,2.4-5.6c0-0.3,0.2-0.6,0.6-0.4c0.3,0.1,0.3,0.4,0.2,0.8c-0.3,1.5-1.5,2.7-1.1,4.4
			C141.4,283.2,139.9,283.2,139.2,283.7z"/>
		<path class="st3" d="M156.5,289.1c-1.4-0.6-2.5-1.6-4-1.8c-0.3,0-0.6-0.4-0.7-0.7c-0.1-0.4,0.3-0.6,0.6-0.8
			c0.5-0.3,0.6,0.2,0.8,0.4c0.7,0.8,1.6,1.3,2.6,1.8C156.2,288.2,156.7,288.4,156.5,289.1z"/>
		<path class="st3" d="M161.4,282.8c-1.4,0.3-3.3-0.7-3.4-1.6c0-0.2,0.2-0.4,0.3-0.6c0.2-0.2,0.4-0.1,0.6,0.1
			C159.4,281.7,160.4,282,161.4,282.8z"/>
		<path class="st3" d="M127.7,278.3c0.8,0.3,1.5,0.1,2.2-0.3c0.2-0.1,0.6-0.3,0.8,0s0.1,0.6-0.1,0.8
			C129.8,279.7,128.4,279.5,127.7,278.3z"/>
		<path class="st3" d="M147.1,280.8c-1.7-0.5-2.4-1.4-3-2.3c-0.2-0.2-0.3-0.5,0-0.8s0.6,0,0.8,0.2
			C145.5,278.7,146.1,279.6,147.1,280.8z"/>
		<path class="st3" d="M158.9,287.3c-0.9-0.6-1.8-1.2-2.7-1.7C157.7,285.2,158.5,286,158.9,287.3z"/>
		<path class="st3" d="M157.6,283.8c1.4-0.1,2.4,0.6,3.6,1.9C159.5,285.3,158.5,284.6,157.6,283.8z"/>
		<path class="st3" d="M143.5,280.6c-0.3,0.8,0.2,1.4,0.6,2.1c-1.2,0.1-1.8-0.6-2-1.3C141.9,280.8,143.1,281,143.5,280.6z"/>
		<path class="st3" d="M146.9,290c-1.1-0.9-2-1.5-2.9-2.6C145.4,287.9,146.7,288,146.9,290z"/>
		<path class="st3" d="M160.7,280.1c-0.1,0.4,0,0.9-0.6,0.7c-0.5-0.1-0.9-0.5-0.8-1c0-0.4,0.4-0.6,0.8-0.6
			C160.7,279.3,160.7,279.7,160.7,280.1z"/>
		<path class="st3" d="M129.8,275.3c-0.5,0.7-0.2,1.6-1.1,1.7c-0.1,0-0.3-0.2-0.3-0.3C128.3,275.9,128.6,275.5,129.8,275.3z"/>
		<path class="st3" d="M146.5,281.3c1.6,0.2,1.9,1,2.3,2.2C147.8,282.9,147.3,282.3,146.5,281.3z"/>
		<path class="st3" d="M127.8,276.7c-1.6-0.1-1.5-0.8-1.3-1.7C127.3,275.4,127.3,276.1,127.8,276.7z"/>
		<path class="st3" d="M150.6,279.9c1.4-0.7,2-0.2,2.9,0.5C152.4,280.6,151.7,280.2,150.6,279.9z"/>
		<path class="st3" d="M156.4,287.1c1.1,0.2,1.9,0.9,2.1,2C157.9,288.4,157.2,287.7,156.4,287.1z"/>
		<path class="st3" d="M152.3,283.4c-0.1,0.5-0.5,0.4-0.8,0.4s-0.8,0-0.8-0.4s0.4-0.5,0.8-0.5C151.8,282.9,152.1,283,152.3,283.4z"
			/>
		<path class="st3" d="M160.9,273.3c0.9-0.5,1.4-0.8,2-0.5c0.1,0,0.1,0.4,0.1,0.4C162.4,273.8,161.8,273.6,160.9,273.3z"/>
		<path class="st3" d="M145.9,287.5c-0.8-0.3-1.5-0.6-2.6-1C144.6,286.2,145.4,286.4,145.9,287.5z"/>
		<path class="st3" d="M126.1,268.9c-0.1,0.8-0.5,1.2-1.4,1.7C124.9,269.6,125,268.9,126.1,268.9L126.1,268.9z"/>
		<path class="st3" d="M149.7,290.6c1-0.5,1.6-0.9,2.6-0.6C151.5,290.7,151,291.3,149.7,290.6z"/>
		<path class="st3" d="M139.2,294.6c0.4-1.5,1.8-0.9,2.8-1.4C141.4,294.4,140,294,139.2,294.6z"/>
	</g>
	<path id="_x3C_filtrum_x3E_" class="st1" d="M142.4,254.5c0.5,0.8,1,1.7,1.5,2.5c0.2,0.4,0.8,0.7,0.1,1.1c-0.9,0.6-1.7,0.3-2.6,0
		c-0.7-0.3-0.2-0.6-0.1-0.9C141.7,256.3,142.1,255.4,142.4,254.5z"/>
	<g id="_x3C_Mouth_x3E_">
		<path class="st4" d="M155.3,263.6c-4.6,6.9-14,8.8-21.3,4.3c-0.6-0.4-1.2-0.8-1.8-1.2c-2.3-1.2-3.5-3.4-4.8-5.4
			c-0.1-0.2,0-0.5,0.1-0.7c2.2-1.1,4.6-1.4,7-1.4c2.8,0,5.6-0.2,8.3-0.5c3-0.2,6.1,0.7,9.1-0.3c2.5-0.8,4.4,0.3,5.2,2.2
			C156.9,261.9,156.4,262.9,155.3,263.6z"/>
		<path class="st4" d="M144.8,267.7c-5.6,1-9.7-1.5-13.3-5.3c-0.6-0.6-1.4-1.2-1-2.1c0.4-0.8,1.3-0.4,2-0.4c3-0.1,6,0,9,0.3
			c3.5,0.4,7-0.1,10.6-0.3c0.3-0.2,0.4,0,0.5,0.3c-0.1,0.4-0.4,0.7-0.7,1c-0.1,0.1-0.3,0.1-0.4,0.2c-0.6,0-1,0.4-1.5,0.6
			c-0.2,0-0.3,0.1-0.5,0.1c-0.6-0.1-1.2-0.3-1.4,0.5c-0.4,1.2,0.7,1.2,1.3,1.7c0,0.2,0,0.3-0.1,0.5c-0.5,0.4-1.2,0.4-1.8,0.5
			c-0.3,0-0.5,0-0.8-0.2c-0.3-0.6,0-1.3-0.1-1.9c-0.2-0.8-0.6-1.5-1.5-1.5s-1.2,0.7-1.4,1.4c-0.2,0.7,0.1,1.4-0.1,2.1
			c-0.4,0.5-0.8,0.5-1.3,0c-0.1-0.8,0.1-1.6-0.2-2.4c-0.2-0.6-0.5-1.1-1.2-1.2c-0.8-0.1-1.1,0.5-1.4,1.1c-0.2,0.5-0.2,1-0.4,1.5
			c-0.1,0.2-0.3,0.4-0.5,0.6c-0.6,0.3-1.3,0.1-2,0.3c0.5,0.6,1.1,0.9,1.7,1.2c0.4,0.2,0.8,0.3,1.2,0.4c1.1,0.3,2.2,0.3,3.3,0.3
			C143.5,267.1,144.4,266.6,144.8,267.7z"/>
		<path class="st4" d="M149.1,264.5c0-0.1,0-0.2,0-0.3c-0.2-0.8-0.2-1.6,0.2-2.4c0.1,0,0.3,0,0.4-0.1c0.5,0.3,0.4,1,0.9,1.2
			c0.8-0.5,0-1.4,0.6-1.9c0.1,0,0.3,0,0.4,0c0.4-0.1,0.9-0.2,0.7-0.8c-0.1-0.1-0.3-0.2-0.4-0.4c1-0.4,2.3-0.4,1.5,1.1
			c-1.6,3.2-3.7,5.9-7.6,6.6c-0.4,0.1-0.7,0.2-0.9-0.4c0.4-0.6,1-0.6,1.6-0.8c0.3-0.1,0.6-0.1,0.9-0.3
			C148.1,265.6,149.2,265.6,149.1,264.5z"/>
		<path class="st4" d="M146.5,264.9c-1,0.4-2.1,0.4-3.2,0c-0.1-0.1-0.3-0.3-0.3-0.4c-0.1-1.2-0.2-2.4,0.9-3.2
			c0.8-0.6,1.7-0.2,2.3,0.4C147.1,262.6,147.2,263.8,146.5,264.9z"/>
		<path class="st4" d="M149.4,261.8c0.2,0.8,0.5,1.7-0.2,2.4c-1.7,0-2.1-0.5-1.7-1.9C147.8,261.1,148.5,260.8,149.4,261.8z"/>
		<path class="st4" d="M151.3,261c0,0.1,0,0.2,0.1,0.3c0.4,0.7,0.6,1.4-0.1,2.1c-0.2,0.2-0.5,0.5-0.7,0.4c-0.7-0.5-0.7-1.3-0.7-2
			C150.2,261.3,150.2,260.1,151.3,261z"/>
		<path class="st4" d="M152.4,260.2c0.2,0.1,0.7-0.1,0.7,0.3c0,0.5-0.2,1-0.7,1.1c-0.4,0.1-0.4-0.5-0.7-0.6
			C151.6,260.5,151.9,260.3,152.4,260.2z"/>
		<path class="st4" d="M145.2,267.1c-0.4,0-0.7,0-1.1,0c-0.6,0.1-1.1,0-1.1-0.7c0-0.9,0.6-0.7,1.1-0.7c0.6,0,1.3,0.1,1.8-0.1
			c1.4-0.6,1.1,0.3,1,1.1C146.3,266.8,145.8,267,145.2,267.1z"/>
		<path class="st4" d="M147.7,266.5c-0.7-0.4-0.3-1-0.4-1.5c0.5-0.6,1.3,0,1.8-0.4c0.3,0,0.6-0.1,0.8,0c0.2,0.2,0,0.4-0.2,0.5
			C149.1,265.6,148.4,266,147.7,266.5z"/>
		<path class="st4" d="M147.7,266.5c-0.3,0.1-0.5,0.2-0.8,0.2c-0.9-1.1-2-0.4-3.1-0.6c0.3,0.8,1.1,0.5,1.3,1
			c0.3,0.1,0.5,0.3,0.8,0.4c-0.3,0.3-0.7,0.3-1.1,0.2c-0.7-0.5-1.5-0.1-2.2-0.4c-1.1-1.7-2.5-1.8-3.5-0.3c-0.4-0.1-0.7-0.2-1.1-0.3
			c-0.2-0.7-0.2-1.4,0.3-2.1c0.2-0.2,0.4-0.3,0.5-0.5c1.2,0.3,2.5,0.1,3.5,0.9c0.4,0.3,0.7,0.5,1.1-0.1c1-0.3,2.1-0.3,3.2,0
			c0.3,0,0.5,0,0.8,0C147.8,265.4,147.8,265.9,147.7,266.5z"/>
		<path class="st4" d="M139,267.1c-0.6-1.8-0.6-1.8,1.2-1.5c0.3,0,0.6,0.1,0.9,0.1c1.6-0.3,1.7,0.5,1.4,1.7
			C141.4,267.4,140.2,267.5,139,267.1z"/>
		<path class="st4" d="M142.3,265c-1.3,0-2.6,0.4-3.5-0.9c0-1.2,0-2.4,1.3-3c0.6-0.3,1.3-0.1,1.8,0.5
			C142.6,262.6,142.9,263.8,142.3,265z"/>
		<path class="st4" d="M137.6,261c0.3-1.6,1.2,0.3,1.6-0.4C138.8,261.9,138.1,260.9,137.6,261L137.6,261z"/>
		<path class="st4" d="M138.2,264.7c0,0.7,0.4,1.5-0.3,2.1c-0.2-0.1-0.4-0.2-0.6-0.3c-0.6-0.5-2-0.7-1.7-1.4
			C136,264.1,137.3,264.5,138.2,264.7z"/>
		<path class="st4" d="M137.6,261c0.8,0.9,1.3,2.1,0.5,3c-0.8,1-2,0.3-2.9-0.4c-0.6-0.6-0.6-1.3,0-1.9c0.3-0.1,0.4,0.7,0.7,0.1
			C136.2,261.1,136.8,261,137.6,261L137.6,261z"/>
		<path class="st4" d="M135.1,261.7c0,0.6,0,1.3,0,1.9c-0.8,0.8-1.1,0-1.3-0.5c-0.3-0.6-0.5-1.5,0-2
			C134.3,260.7,134.8,261.2,135.1,261.7z"/>
		<path class="st4" d="M133.3,263.5c-0.6-0.5-0.8-0.7-1-0.9c-0.5-0.6-1.6-1.2-1.3-1.9c0.4-0.7,1.5-0.2,2.4-0.3
			C133.2,261.3,132.8,262.2,133.3,263.5z"/>
		<path class="st4" d="M141.1,273.8c-0.1,0-0.3,0-0.4,0c-2.9-1.4-5.6-3.2-8.1-5.3c-0.5-0.4-1-0.8-1-1.6c0.1-0.3,0.3-0.4,0.6-0.4
			c2,0.8,3.8,2.1,5.9,2.6c5,1.2,9.7,0.9,14-2.4c1.2-0.9,1.8-2.4,3-3.3c0.3-0.1,0.5,0,0.7,0.3c0.2,1.2-0.5,2.2-1.2,3
			c-2.2,2.8-4.8,5.3-8.3,6.4c-0.4,0.1-0.7,0.5-1.1,0.3C143.8,273.6,142.4,273.2,141.1,273.8z"/>
	</g>
	<g id="_x3C_Mustache_x3E_">
		<path class="st4" d="M148.2,250.4c1.4-0.7,2.7,0.2,4,0.8c2.4,1.1,4.8,2.2,6.4,4.4l0,0c1.4,3.4,1.3,7.2,2.4,10.7
			c0.9,3.2,3.2,6,3.7,9.4c-0.9,0.1-1.5-1-2.3-0.2c-0.6,0.6-0.7,1.2-0.2,2.1c0.4-0.4,0.2-1.5,1.2-1.2c0.9,0.3,1.6,0.6,1.8,1.7
			c0.5,3.3,0.2,6.4-1.7,9.3c-0.8,1.3-1.7,2.6-2.6,3.9c-0.9,1.3-2,1.5-3.3,0.4c-1.2-1-2.6-1.8-4.3-1.8c1.3,0.9,2.9,1.4,3.7,3
			c-2.1,0-3,1.7-4.2,2.9c-1,1-1.5,1.1-2.4,0.1c-0.3-0.4-0.9-0.5-1.7-0.9c0.5,1.4,1.7,1.8,2.1,2.8c-1.4-0.1-3.8-1.4-3.8-2.3
			c0-1.4,1.5-1.9,2.6-3.4c-3.1,1.4-4.1-1.1-5.8-2.6c0,1.1,1.4,1.5,0.6,2.3c-0.9,1-1.7-0.5-2.7-0.2c0.2,0.9,1.9,1,1.2,2.3
			c-0.4,0.8-0.1,1.8-0.6,2.7c-0.3,0.5-0.8,1.3-1.3,0.9c-1.2-0.8-2.4-0.5-3.6-0.7c-1.2-0.3-1.7-1.1-0.7-2.1c-0.5-0.6-0.9,0.6-1.3-0.1
			c-0.2-0.5,0.3-0.7,0.6-1c0.4-0.4,0.5-0.8,0.5-1.3c0-1-0.2-1.9,0.7-2.8c0.5-0.5-0.9-1.6-0.2-2.6c-1,1.2-1.9,2-3.4,1.9
			c-0.1-0.9,0.9-0.8,1.1-1.5c-1.3-0.2-1.8,1.1-2.9,1.2c1.3,0.7,2.6,1.4,4.3,0.2c-0.6,1.3-0.8,2.3-0.5,3.3c0.1,0.6-0.1,1.1-0.8,1.2
			c-0.3,0.1-0.8,0.1-1-0.1c-0.5-0.5,0.1-0.8,0.4-1.2c0.2-0.5,0.8-1.1,0.1-1.3c-0.8-0.3-1.6-1.1-2.7-0.3c-1.6,1.1-3.3,0.3-3.5-1.5
			c-0.1-1.4-0.9-2.1-2.1-2.7c-0.5-0.3-1.1-0.4-1.5-0.9c-0.2-0.3-0.2-0.6,0-0.8c0.2-0.3,0.6-0.3,0.8-0.1c1.2,1.9,3.7,0.5,5,2.2
			c-1.3-2-1.8-4.4-4.2-5.4c0.3-0.2,0.4-0.3,0.5-0.3c0.6,0,0.9,1.4,1.5,0.7c0.7-0.8-0.7-0.8-1-1.3c-0.6-1.5-2.1-2.6-1.5-4.6
			c0.3-0.7,0.1-1.2-0.9-1c-0.8,0.2-1.2-0.3-0.9-0.8c1-2.1-0.7-4.2-0.2-6.3c0.2-0.7-0.4-1.3-0.7-2c-0.3-0.9-0.1-1.6,0.8-1.8
			c0.8-0.1,1,0.8,1.1,1.4c0.2,1.3,1,2.4,1.2,3.7c-0.1,0.4-0.4,0.5-0.7,0.9c0.3-0.3,0.5-0.5,0.7-0.7c0.8,0.3,1.2,1,1.6,1.6
			c1.3,1.7,2.5,3.3,3.8,4.9c1.1,1.4,2.5,2.6,4.4,2.8c0.5,0,1.1,0,1.2,0.6c0.1,0.6-0.4,1-0.8,1.3c-0.6,0.5-1.5,0.5-2.2,0.9
			c0.7-0.3,1.4-0.4,2-0.8c0.7-0.4,1.2-1.2,2-0.6c0.6,0.5,0,1.3,0.2,2c-0.8-3.4,1.1-5.7,2.8-8.2c1.2-0.6,2.4-0.4,3.6-0.2
			c1.5,0.7,1.7,2.3,2.6,3.5c1.1,1.6,2.1,1.8,3.7,0.5c0.9-0.8,1.7-1.7,2.7-2.4c1.4-1,1.7-1,3.6,0c-0.8-0.8-2.6-1-1.3-2.6
			c0.8-1,1.5-1.4,2.6-0.3c-0.5-0.6-1.4-1-0.9-1.8c0.3-0.7,0.9-0.3,1.3,0.1c-0.1-0.4-0.4-0.7-0.5-1.1s-0.5-1,0-1.3
			c0.6-0.3,0.9,0.3,1.2,0.8c-0.8-1.3-2.3-2.6-0.5-4.2c0.1-0.1,0-0.2-0.1-0.3c-1.2-0.9-0.8-2.6-1.8-3.6c-1.5-2.5-3.8-2.6-6.3-2.2
			c-1.1,0.1-3.2,0.2-4.3,0.1c-2.4-0.1-4.1-4.2-4.1-4.2c-0.2,1.9-1.4,3.4-3.2,4.1c-1.9,0.8-3.9,0.8-5.8,0.8c-4.4,0-7.7,1.7-10.5,5
			c-0.2,0.2-0.4,0.2-0.6,0.3c-0.2,0.3-0.5,0.5-0.7,0.8l-1.1,0.6c1.2-1.5,1.4-3.3,2-5c1-3,2.7-5.4,5.5-6.9c1.8-1,3.6-2.2,5.5-2.9
			c0.5-0.2,1-0.5,1.2-0.9"/>
		<path class="st4" d="M145.1,273.5c0.3-0.2,0.5-0.5,0.8-0.7c0.8,1,1.1,2.2,1.8,3.3c1,1.5,1.8,1.7,3.1,0.5c2-1.8,4-3.6,5.5-5.8
			c1.5-2.3,1.6-4.8,1.3-7.3c-0.1-0.7-0.3-1.4-0.2-2.1c0.1-0.3,0.2-0.5,0.4-0.7l0,0c0.9,1.2,0.9,2.8,2,3.9c0.2,0.2,0.2,0.4,0,0.6
			c-1.1,0.8-1.1,1-0.6,2.1c0.2,0.4,0.5,0.8,0.7,1.2c0.2,0.4,0.5,0.8,0.8,1.3c-1.2-0.2-1.1-1.5-2.2-1.8c0.5,1.1,1,2.1,1.5,3.2
			c-1,0.1-1.1-1.1-2-1c0,1.1,1.5,1.4,1.4,2.8c-1.4-1.5-2.6-1.9-3.4,0.4c1,0.4,1.7,1.1,2.4,1.9c-0.1,0.3-0.3,0.3-0.4,0.2
			c-2.4-1.5-2.8-1.4-4.9,0.5c-3.9,3.7-4.5,3.6-7.1-1.1C145.6,274.5,145.4,274,145.1,273.5z"/>
	</g>
	<g id="_x3C_Nose_x3E_">
		<path class="st4" d="M148.5,248.2c0.1,0.9,0.1,1.6-0.3,2.2c-0.3,0.5-1,0.8-2.1,0.8c-0.1,0-0.4-0.2-1.1-0.2c-0.3,0-0.9,0.7-1.2,0.8
			c-0.3,0.2-1.5,1-2,1c-0.4,0-1.4-0.2-1.6-0.5c-0.2-0.6-1-1-1-1c-0.6,0-1.1,0.3-1.6,0.3c-0.6-0.1-1.5-0.2-1.8-0.5
			c-0.2-0.1-0.6-0.5-0.7-0.6c-0.2-0.3-0.3-0.6-0.3-0.8l0,0c-0.2-1.7,0.5-3.1,1.5-4.4c1.1-1.4,2-2.9,2.5-4.6"/>
		<path class="st4" d="M148.7,248.3c-0.4-0.8-0.5-1.8-1.2-2.5c1.3,0.2,1.4,1.2,1.6,2.1"/>
		<path class="st4" d="M138.9,250.9c-0.2-1.2-1.3-0.7-1.9-1.1c1.3-0.7,2-0.4,2.7,1.3"/>
		<path class="st4" d="M135.4,250c0.8,1.6,2.2,1.4,3.6,1"/>
		<path class="st4" d="M139.3,234.7c0.1,1.9,0.2,3.8,0,5.6"/>
		<path class="st4" d="M139.3,240.3c0,2-1.3,3.4-2.3,4.9c-1,1.4-1.9,2.9-1.7,4.8"/>
		<path class="st4" d="M138.8,240.7c0-3.8,0.1-7.5-0.6-11.2c0.9,1.7,1.1,3.4,1.2,5.2"/>
		<path class="st4" d="M146.3,249.9c0.6-0.5,1.2-0.9,1.8-1.9C148.1,249.8,147.3,250,146.3,249.9z"/>
	</g>
	<g id="_x3C_Eyes_x3E_">
		<g id="_x3C_LeftEye_x3E_">
			<path id="_x3C_LeftEyeFold6_x3E__1_" class="st4" d="M132.1,237.6c-2.8,2.3-6.9,1.8-8.9-1.1C125.9,239.1,129,238.2,132.1,237.6z"
				/>
			<path id="_x3C_LeftEyeFold6_x3E_" class="st4" d="M119.3,234.6c-1.2,0.4-2.3,0.6-3.8-0.2C117.1,234.1,118.2,234.2,119.3,234.6z"
				/>
			<path id="_x3C_LeftEyeFold5_x3E_" class="st4" d="M116.8,231.1c1.1,0.4,1.9,1.1,2.5,2C118.1,232.8,117.5,231.9,116.8,231.1z"/>
			<path id="_x3C_LeftEyeFold4_x3E_" class="st4" d="M116,240.5c1.4-1.5,2.8-2.9,4.2-4.4l0.4,0.4c-1.5,1.5-2.8,3.2-4.7,4.3"/>
			<path id="_x3C_LeftEyeFold3_x3E_" class="st4" d="M132.6,236c-2.7-0.6-5.1-1.1-7.6-1.7C126.8,233.7,130.8,234.6,132.6,236z"/>
			<path id="_x3C_LeftEyeFold2_x3E_" class="st4" d="M122.4,233.8c3.8-4,8.6-3.2,12.8,2.7c-1.9-1.5-3.6-3.1-6-3.8
				C126.8,231.9,124.6,232.6,122.4,233.8z"/>
			<path id="_x3C_LeftEyeFold1_x3E_" class="st4" d="M120.9,232.9c2.1-3.2,4.9-5.1,9-4.4c2.4,0.4,4.5,1.8,5.6,4.4
				c-1.9-2.3-4.1-3.8-7.2-3.9C124.8,228.8,123.2,231.4,120.9,232.9z"/>
			<path class="st4" d="M121.3,235.9c0.9,0.6,1.2,1.2,1.6,2.3C122,237.5,121.5,237,121.3,235.9z"/>
			<path id="_x3C_LeftEyebrow_x3E_" class="st4" d="M119.8,227.9c3.4-4.6,8.9-4.7,13.1-3.6c0.3,0.1,0.6,0.2,0.8,0.4
				c0.6,0.4,1.7,0.7,1.3,1.6c-0.5,1-1.4,0.2-2,0c-4.4-1.8-8.6-2.1-12.4,1.2C120.3,227.7,120,227.8,119.8,227.9z"/>
		</g>
		<g id="_x3C_RightEye_x3E_">
			<path class="st4" d="M146.1,228.2c3.7-3.3,8.6-2.7,11.5,1.4c-2-1.4-3.6-2.6-5.8-3C149.5,226.2,147.9,227.4,146.1,228.2z"/>
			<path class="st4" d="M146.8,236.4c2.6,2.1,5.7,1.2,8.7,1.4C152.7,239.2,148.8,238.6,146.8,236.4z"/>
			<path id="_x3C_RightEyebrow_x3E_" class="st4" d="M157.6,225.5c-2.6-2.6-5.6-3.1-9-2.1c-0.6,0.2-1.1,0.4-1.7,0.6
				c-0.6,0.2-1.2,0.2-1.4-0.6c-0.2-0.7,0-1.2,0.7-1.4c2.6-1,10-0.6,11.9,2.7l0.2,0.2c0.9,0.8,0.8,1.6,1,2.7
				C158.5,227,158.1,226.4,157.6,225.5L157.6,225.5z"/>
			<path class="st4" d="M146.5,232.4c-0.1,0.1-0.3,0.2-0.4,0.3c-0.2,0.1-0.3,0.2-0.5,0.4c-0.1,0.1-0.3,0.2-0.5,0.4
				c-0.2,0.1-0.4,0.2-0.5,0.3c-0.3,0.2,0.1,0.6,0.7,0.9c0.6,0.3,1.4,0.7,1.9,0.9c0.1,0,0.3,0.1,0.6,0.2c0.3,0.1,0.5,0.2,0.6,0.2
				l0.6,0.1l0.6,0.1l0.7,0.1l0.7,0.1h0.5h0.5h0.4h0.4h0.6h0.6h0.4h0.4c0.3,0,0.5,0,0.7-0.1s0.5-0.1,0.7-0.2c0.2-0.1,0.5-0.2,0.6-0.3
				c0.2-0.1,0.4-0.3,0.5-0.5c0-0.1,0.1-0.2,0.1-0.3s0.1-0.2,0.1-0.3c0.1-0.2,0-0.3,0-0.4s-0.1-0.2-0.2-0.3c-0.1-0.2-0.1-0.3-0.2-0.3
				c-0.1-0.1-0.1-0.1-0.3-0.3c-0.1-0.1-0.1-0.1-0.2-0.2s-0.1-0.1-0.2-0.2l-0.3-0.2l-0.3-0.2c-1.5-1.1-2.8-1.7-4.2-1.7
				s-2.7,0.4-4.2,1.4c0,0-0.2,0.1-0.4,0.2C146.8,232.2,146.6,232.3,146.5,232.4z"/>
			<path id="_x3C_Iris_x3E_" class="st4" d="M152.7,231.2c1.2,0.6,1.2,1.6,1.1,2.7c-0.1,1-0.6,2.1-1.8,2c-0.7,0-2.1,0-2.9-0.3
				c-0.9-0.3-1.3-1.1-1.3-2.2C147.8,232.2,150,230,152.7,231.2z"/>
			<path id="_x3C_Pupil_x3E_" class="st4" d="M151.6,235.1c-0.1,0.1-0.2,0.2-0.5,0.3s-0.7,0.1-0.8,0.1c-0.8,0-1.6-1-1.5-1.8
				c0-1,1.2-1.5,2.1-1.4C152,232.2,152.6,234.4,151.6,235.1z"/>
		</g>
	</g>
	<g id="_x3C_Facial_x3E_">
		<path id="_x3C_FaceShape_x3E_" class="st1" d="M161.7,268.3c0.7-0.1,1.1-2.5,1.1-3c0.2-1.7,0.2-3.5,0.6-5.1
			c1.7-7.1,1.3-14.2-0.3-21.3c-1.2-5.3-0.4-10.8-1-16.1c-0.5-4.7-1.1-9.3-3.2-13.6c-3-6-9.9-9.8-16.5-9.1c-2,0.6-3.9,1.9-6.2,1.3
			c-2.9-0.9-5.7-1.2-8.7-1c-7.5,3.3-11.6,9-12.8,17c-0.6,3.9,0.1,7.8,0,11.7c-0.1,3.2,0.1,6.3,0.6,9.4c0.1,0.4-0.2,1.2,0.7,1.1l0,0
			c0,0.1,0,0.3,0,0.4l0,0c-1.8,2.5-0.9,5.1-0.1,7.6c1.2,3.6,2.2,7.3,2.3,11.1c0,1.8,0.2,3.6,0.8,5.2c0.3,0.8,0.7,1.8,1.7,2"/>
		<path class="st1" d="M155.7,263.9c0.7-0.7,0.9-1.6,1.3-2.5c0.3-0.6,0.5-0.3,0.8,0c1.8,6.8-1.7,11.5-6.6,15.6
			c-1.8,1.5-2.6,1.4-3.8-0.6c-0.6-1.1-1.6-2.1-1.4-3.5C150.5,271.3,153.7,268.2,155.7,263.9z"/>
		<path class="st1" d="M131.8,267.1c2.1,2.3,4.6,4,7.4,5.4c0.6,0.3,1.3,0.6,1.6,1.3c-0.5,0.8-0.9,1.5-1.4,2.3
			c-1.2,2-3.4,2.8-5.2,1.3c-3.9-3.2-7.2-7.1-9-11.9c-0.6-1.6-0.3-3.1,1.2-4.2c0.6-0.2,1,0.1,1.2,0.5
			C128.9,263.6,130.5,265.2,131.8,267.1z"/>
	</g>
</g>
</svg>
